<svg width="24" height="24" xmlns="http://www.w3.org/2000/svg">

 <g>
  <title>background</title>
  <rect fill="none" id="canvas_background" height="402" width="582" y="-1" x="-1"/>
 </g>
 <g>
  <title>Layer 1</title>
  <path fill="white" id="svg_1" d="m19,10c0,1.38 -2.12,2.5 -3.5,2.5c-1.38,0 -2.75,-1.12 -2.75,-2.5l-1.5,0c0,1.38 -1.37,2.5 -2.75,2.5c-1.38,0 -3.5,-1.12 -3.5,-2.5l-0.75,0c-0.16,0.64 -0.25,1.31 -0.25,2a8,8 0 0 0 8,8a8,8 0 0 0 8,-8c0,-0.69 -0.09,-1.36 -0.25,-2l-0.75,0m-7,-6c-2.96,0 -5.55,1.61 -6.93,4l13.86,0c-1.38,-2.39 -3.97,-4 -6.93,-4m10,8a10,10 0 0 1 -10,10a10,10 0 0 1 -10,-10a10,10 0 0 1 10,-10a10,10 0 0 1 10,10m-10,5.23c-1.75,0 -3.29,-0.73 -4.19,-1.81l1.42,-1.42c0.45,0.72 1.52,1.23 2.77,1.23c1.25,0 2.32,-0.51 2.77,-1.23l1.42,1.42c-0.9,1.08 -2.44,1.81 -4.19,1.81z"/>
 </g>
</svg>