<?xml version="1.0" standalone="no"?>
<!DOCTYPE svg PUBLIC "-//W3C//DTD SVG 20010904//EN"
 "http://www.w3.org/TR/2001/REC-SVG-20010904/DTD/svg10.dtd">
<svg version="1.0" xmlns="http://www.w3.org/2000/svg"
 width="16.000000pt" height="16.000000pt" viewBox="0 0 16.000000 16.000000"
 preserveAspectRatio="xMidYMid meet">
<metadata>
Created by potrace 1.11, written by Peter Selinger 2001-2013
</metadata>
<g transform="translate(0.000000,16.000000) scale(0.002286,-0.002286)"
fill="#000000" stroke="none">
<path d="M1637 6404 c-171 -32 -331 -153 -407 -309 -68 -138 -63 67 -63 -2595
l0 -2405 22 -80 c59 -214 231 -375 446 -419 47 -10 471 -12 1885 -11 1973 2
1843 -1 1957 51 184 85 331 280 350 464 3 30 6 845 7 1811 l0 1755 -874 875
-875 874 -1190 1 c-911 0 -1206 -3 -1258 -12z m2959 -1228 c436 -437 794 -796
794 -798 0 -2 -359 -3 -797 -3 l-798 0 -3 798 c-1 438 0 797 3 797 4 0 364
-357 801 -794z m-514 -1978 c2 -7 3 -151 3 -320 l-1 -307 21 13 c27 18 784
572 808 592 9 7 21 14 26 14 5 0 11 6 14 13 2 6 5 -383 5 -866 l0 -877 -52 37
c-50 37 -267 195 -315 230 -38 28 -274 201 -296 217 -94 69 -172 127 -182 135
-7 6 -16 11 -21 11 -5 0 -8 -137 -8 -311 1 -171 -2 -313 -6 -315 -5 -3 -1247
-6 -1915 -4 l-121 0 0 875 0 875 1018 0 c806 0 1019 -3 1022 -12z"/>
</g>
</svg>
